<?xml version="1.0" encoding="UTF-8" standalone="no"?><svg xmlns="http://www.w3.org/2000/svg" xmlns:xlink="http://www.w3.org/1999/xlink" fill="#000000" height="60.1" preserveAspectRatio="xMidYMid meet" version="1" viewBox="-0.2 -0.1 60.4 60.1" width="60.4" zoomAndPan="magnify"><g fill="#f8ffec" id="change1_1"><path d="M 6.726562 38.59375 C 6.300781 38.476562 6 38.085938 6 37.640625 L 6 20.996094 L 20.988281 25.195312 C 23.035156 25.769531 25.230469 24.894531 26.328125 23.070312 L 29 18.613281 L 29 27 L 19 27 C 16.792969 27 15 28.792969 15 31 L 15 40.859375 Z M 2.195312 16.734375 C 1.878906 15.933594 1.949219 15.054688 2.394531 14.316406 L 5.464844 9.171875 L 28.46875 15.609375 L 24.609375 22.042969 C 23.980469 23.09375 22.714844 23.601562 21.53125 23.269531 L 4 18.359375 C 3.171875 18.125 2.515625 17.535156 2.195312 16.734375 Z M 29.460938 2.074219 C 29.8125 1.976562 30.1875 1.972656 30.535156 2.074219 L 51.320312 7.992188 L 30 13.964844 L 8.679688 7.992188 Z M 57.804688 16.734375 C 57.484375 17.535156 56.828125 18.125 56 18.359375 L 38.46875 23.269531 C 37.289062 23.601562 36.019531 23.09375 35.390625 22.042969 L 31.53125 15.609375 L 54.53125 9.171875 L 57.609375 14.316406 C 58.050781 15.054688 58.121094 15.933594 57.804688 16.734375 Z M 54 37.640625 C 54 38.085938 53.699219 38.476562 53.277344 38.59375 L 45 40.859375 L 45 31 C 45 28.792969 43.207031 27 41 27 L 31 27 L 31 18.613281 L 33.671875 23.070312 C 34.542969 24.519531 36.105469 25.367188 37.738281 25.367188 C 38.160156 25.367188 38.589844 25.3125 39.011719 25.195312 L 54 20.996094 Z M 43 56 C 43 57.101562 42.101562 58 41 58 L 19 58 C 17.898438 58 17 57.101562 17 56 L 17 31 C 17 29.898438 17.898438 29 19 29 L 41 29 C 42.101562 29 43 29.898438 43 31 Z M 19 60 L 41 60 C 43.207031 60 45 58.207031 45 56 L 45 42.933594 L 53.808594 40.523438 C 55.097656 40.164062 56 38.976562 56 37.640625 L 56 20.433594 L 56.539062 20.285156 C 57.972656 19.882812 59.113281 18.859375 59.660156 17.472656 C 60.214844 16.089844 60.089844 14.566406 59.324219 13.289062 L 55.859375 7.488281 L 55.847656 7.496094 C 55.71875 7.28125 55.527344 7.113281 55.273438 7.039062 L 31.082031 0.148438 C 30.375 -0.0507812 29.628906 -0.046875 28.914062 0.152344 L 4.726562 7.039062 C 4.476562 7.113281 4.277344 7.28125 4.152344 7.496094 L 4.140625 7.488281 L 0.675781 13.285156 C -0.0898438 14.566406 -0.214844 16.089844 0.339844 17.472656 C 0.886719 18.859375 2.027344 19.882812 3.460938 20.285156 L 4 20.433594 L 4 37.640625 C 4 38.976562 4.902344 40.164062 6.195312 40.523438 L 15 42.933594 L 15 56 C 15 58.207031 16.792969 60 19 60" fill="inherit"/><path d="M 24.292969 32.292969 L 22 34.585938 L 21.707031 34.292969 C 21.316406 33.902344 20.683594 33.902344 20.292969 34.292969 C 19.902344 34.683594 19.902344 35.316406 20.292969 35.707031 L 21.292969 36.707031 C 21.488281 36.902344 21.742188 37 22 37 C 22.257812 37 22.511719 36.902344 22.707031 36.707031 L 25.707031 33.707031 C 26.097656 33.316406 26.097656 32.683594 25.707031 32.292969 C 25.316406 31.902344 24.683594 31.902344 24.292969 32.292969" fill="inherit"/><path d="M 39 34 L 29 34 C 28.449219 34 28 34.449219 28 35 C 28 35.550781 28.449219 36 29 36 L 39 36 C 39.550781 36 40 35.550781 40 35 C 40 34.449219 39.550781 34 39 34" fill="inherit"/><path d="M 24.292969 38.292969 L 22 40.585938 L 21.707031 40.292969 C 21.316406 39.902344 20.683594 39.902344 20.292969 40.292969 C 19.902344 40.683594 19.902344 41.316406 20.292969 41.707031 L 21.292969 42.707031 C 21.488281 42.902344 21.742188 43 22 43 C 22.257812 43 22.511719 42.902344 22.707031 42.707031 L 25.707031 39.707031 C 26.097656 39.316406 26.097656 38.683594 25.707031 38.292969 C 25.316406 37.902344 24.683594 37.902344 24.292969 38.292969" fill="inherit"/><path d="M 39 40 L 29 40 C 28.449219 40 28 40.449219 28 41 C 28 41.550781 28.449219 42 29 42 L 39 42 C 39.550781 42 40 41.550781 40 41 C 40 40.449219 39.550781 40 39 40" fill="inherit"/><path d="M 24.292969 44.292969 L 22 46.585938 L 21.707031 46.292969 C 21.316406 45.902344 20.683594 45.902344 20.292969 46.292969 C 19.902344 46.683594 19.902344 47.316406 20.292969 47.707031 L 21.292969 48.707031 C 21.488281 48.902344 21.742188 49 22 49 C 22.257812 49 22.511719 48.902344 22.707031 48.707031 L 25.707031 45.707031 C 26.097656 45.316406 26.097656 44.683594 25.707031 44.292969 C 25.316406 43.902344 24.683594 43.902344 24.292969 44.292969" fill="inherit"/><path d="M 39 46 L 29 46 C 28.449219 46 28 46.449219 28 47 C 28 47.550781 28.449219 48 29 48 L 39 48 C 39.550781 48 40 47.550781 40 47 C 40 46.449219 39.550781 46 39 46" fill="inherit"/><path d="M 24.292969 50.292969 L 22 52.585938 L 21.707031 52.292969 C 21.316406 51.902344 20.683594 51.902344 20.292969 52.292969 C 19.902344 52.683594 19.902344 53.316406 20.292969 53.707031 L 21.292969 54.707031 C 21.488281 54.902344 21.742188 55 22 55 C 22.257812 55 22.511719 54.902344 22.707031 54.707031 L 25.707031 51.707031 C 26.097656 51.316406 26.097656 50.683594 25.707031 50.292969 C 25.316406 49.902344 24.683594 49.902344 24.292969 50.292969" fill="inherit"/><path d="M 39 52 L 29 52 C 28.449219 52 28 52.449219 28 53 C 28 53.550781 28.449219 54 29 54 L 39 54 C 39.550781 54 40 53.550781 40 53 C 40 52.449219 39.550781 52 39 52" fill="inherit"/></g></svg>