<?xml version="1.0" encoding="UTF-8" standalone="no"?><svg xmlns="http://www.w3.org/2000/svg" xmlns:xlink="http://www.w3.org/1999/xlink" fill="#f8ffec" height="56" preserveAspectRatio="xMidYMid meet" version="1" viewBox="4.0 4.0 56.0 56.0" width="56" zoomAndPan="magnify"><g id="change1_1"><path d="M59,47h-1V16c0-2.757-2.243-5-5-5H30V7c0-0.553-0.447-1-1-1h-4h-5.847C18.256,4.795,16.729,4,15,4H9C6.243,4,4,6.019,4,8.5 S6.243,13,9,13h6c1.178,0,2.248-0.384,3.104-1H24v24.395C18.833,37.732,15,42.42,15,48c0,6.617,5.383,12,12,12 c4.839,0,9.008-2.885,10.904-7.02C37.938,52.984,37.966,53,38,53h21c0.553,0,1-0.447,1-1v-4C60,47.447,59.553,47,59,47z M47,13h4 v4.612l-1.684-0.561c-0.205-0.068-0.428-0.068-0.633,0L47,17.612V13z M45,13v6c0,0.321,0.154,0.623,0.415,0.812 c0.262,0.188,0.597,0.239,0.901,0.137L49,19.054l2.684,0.895C51.787,19.983,51.894,20,52,20c0.207,0,0.412-0.064,0.585-0.188 C52.846,19.623,53,19.321,53,19v-6c1.654,0,3,1.346,3,3v31H38.949c-0.427-5.134-4.095-9.349-8.949-10.605V13H45z M9,11 c-1.654,0-3-1.121-3-2.5S7.346,6,9,6h6c1.654,0,3,1.121,3,2.5S16.654,11,15,11H9z M26,36V11c0-0.553-0.447-1-1-1h-5.307 C19.88,9.528,20,9.028,20,8.5c0-0.171-0.035-0.334-0.057-0.5H25h3v3v25H26z M27,58c-5.514,0-10-4.486-10-10s4.486-10,10-10 s10,4.486,10,10S32.514,58,27,58z M58,51H39v-2h19V51z M27,44c-2.206,0-4,1.794-4,4s1.794,4,4,4s4-1.794,4-4S29.206,44,27,44z M27,50c-1.103,0-2-0.897-2-2s0.897-2,2-2s2,0.897,2,2S28.103,50,27,50z"/></g></svg>