<?xml version="1.0" encoding="UTF-8" standalone="no"?><svg xmlns="http://www.w3.org/2000/svg" xmlns:xlink="http://www.w3.org/1999/xlink" fill="#f8ffec" height="65.3" preserveAspectRatio="xMidYMid meet" version="1" viewBox="16.4 12.8 57.1 65.3" width="57.1" zoomAndPan="magnify"><g id="change1_1"><path d="M47.787,15.139l-3.463,8.402c-0.875,1.875,2.035,3.082,2.744,1.135l3.469-8.404C51.428,14.123,48.449,13.537,47.787,15.139z" fill="inherit"/></g><g id="change1_2"><path d="M38.699,12.791c-0.818,0.016-1.475,0.693-1.465,1.516l-0.004,8.832c-0.059,0.861,0.625,1.59,1.484,1.59 s1.541-0.729,1.484-1.59l0.004-8.832C40.219,13.467,39.537,12.781,38.699,12.791z" fill="inherit"/></g><g id="change1_3"><path d="M56.48,21.088l-6.219,6.25c-1.402,1.406,0.707,3.504,2.109,2.1l6.219-6.252C60.131,21.639,57.803,19.756,56.48,21.088z" fill="inherit"/></g><g id="change1_4"><path d="M28.48,24.047c3.4,4.26,3.91,6.754,3.988,15.307c0.047,0.547,0.578,0.918,1.105,0.77l35.125-8.576 c1.9-0.465,3.879,0.744,4.338,2.381c0.422,1.523-0.166,3.258-2.588,3.963l-29.996,8.662c-1.859,0.5-3.25,2.076-3.672,4.057 c-0.416,1.963,0.131,4,1.475,5.49c0.666,0.738,1.49,1.281,2.375,1.576c-0.615,0.699-1.063,1.572-1.266,2.549 c-0.422,1.961,0.125,4.008,1.469,5.5c0.641,0.713,1.428,1.227,2.275,1.531c-0.504,0.586-0.875,1.305-1.047,2.109 c-0.369,1.682,0.047,3.492,1.266,4.711c0.396,0.396,0.406,0.771-0.316,0.965l-2.137,0.578c-5.266,1.422-10.266,2.422-14.479,0.484 c-4.494-2.063-7.775-7.037-9.24-12.672c-0.775-5.688-0.125-11.609,1.49-16.328l3.553-10.375c1.301-3.797,0.682-6.215-0.965-10.59 C19.063,20.365,26.443,21.5,28.48,24.047z" fill="inherit"/></g><g id="change1_5"><path d="M56.887,45.957c0.969,1.063,1.504,2.672,1.078,4.043c-0.484,1.588-1.35,2.443-2.73,2.813l-12.223,3.281 c-1.178,0.311-2.49-0.094-3.449-1.166c-0.973-1.08-1.363-2.533-1.063-3.955c0.303-1.406,1.23-2.406,2.406-2.729l12.453-3.422 C54.684,44.457,56.115,45.115,56.887,45.957z" fill="inherit"/></g><g id="change1_6"><path d="M59.465,55.582c0.969,1.064,1.379,2.631,1.082,4.037c-0.598,1.578-1.395,2.412-2.77,2.828L45.59,65.709 c-1.178,0.316-2.484-0.086-3.449-1.152c-0.973-1.078-1.359-2.547-1.057-3.969c0.297-1.406,1.225-2.396,2.4-2.719l12.543-3.447 C57.309,54.066,58.734,54.781,59.465,55.582z" fill="inherit"/></g><g id="change1_7"><path d="M59.615,65.025c0.885,0.875,1.193,2.309,0.947,3.527c-0.234,1.145-0.916,2.023-1.822,2.266 c-3.787,0.994-11.354,2.988-11.354,2.988c-0.949,0.25-1.984-0.059-2.762-0.906c-0.785-0.863-1.104-2.025-0.854-3.168 c0.244-1.117,1-1.914,1.943-2.166l11.566-3.172C58.418,64.082,58.965,64.381,59.615,65.025z" fill="inherit"/></g></svg>